<?xml version="1.0" encoding="iso-8859-1"?>
<!-- Uploaded to: SVG Repo, www.svgrepo.com, Generator: SVG Repo Mixer Tools -->
<svg fill="#000000" height="800px" width="800px" version="1.1" id="Layer_1" xmlns="http://www.w3.org/2000/svg" xmlns:xlink="http://www.w3.org/1999/xlink" 
	 viewBox="0 0 512 512" xml:space="preserve">
<g>
	<g>
		<path d="M492.499,19.502c-26.011-26.001-68.329-26.006-94.329,0.006c-33.372,33.371-69.409,69.407-143.827,143.822
			c-1.77,1.764-3.116,3.909-3.946,6.27l-38.24,108.99c-2.122,6.046-0.586,12.777,3.946,17.31c4.529,4.529,11.239,6.068,17.31,3.946
			l108.99-38.24c2.361-0.83,4.506-2.177,6.27-3.946c74.374-74.374,110.474-110.474,143.827-143.827
			C518.499,87.825,518.499,45.513,492.499,19.502z M255.114,256.887l17.271-49.223l31.953,31.953L255.114,256.887z M468.919,90.251
			l-23.583,23.583l-47.169-47.166l23.582-23.582c13-13.005,34.164-13.005,47.17,0C481.913,56.092,481.913,77.245,468.919,90.251z"/>
	</g>
</g>
<g>
	<g>
		<path d="M506.481,483.536c-22.146-22.145-96.612-96.613-180.742-180.742l-81.286,28.523c-5.368,1.873-10.927,2.817-16.56,2.817
			c-6.661,0-13.12-1.298-19.095-3.765l53.118,53.118c10.486,10.474,3.037,28.464-11.789,28.464h-133.4
			c-9.211,0-16.675-7.464-16.675-16.675v-133.4c0-14.855,18.018-22.26,28.464-11.789l53.398,53.398
			c-4.72-11.262-5.382-24.091-1.223-35.941l28.52-81.279C124.954,102.008,50.415,27.468,28.465,5.519
			C18.024-4.958,0.001,2.46,0.001,17.309V145.15h33.35c9.211,0,16.675,7.464,16.675,16.675c0,9.211-7.464,16.675-16.675,16.675
			H0.001v33.35h33.35c9.211,0,16.675,7.464,16.675,16.675c0,9.211-7.464,16.675-16.675,16.675H0.001v33.35h33.35
			c9.211,0,16.675,7.464,16.675,16.675c0,9.211-7.464,16.675-16.675,16.675H0.001v33.35h33.35c9.211,0,16.675,7.464,16.675,16.675
			c0,9.211-7.464,16.675-16.675,16.675H0.001v33.35h33.35c9.211,0,16.675,7.464,16.675,16.675c0,9.211-7.464,16.675-16.675,16.675
			H0.001v50.025c0,9.211,7.464,16.675,16.675,16.675h478.016C509.527,512,516.953,494.007,506.481,483.536z"/>
	</g>
</g>
</svg>